# xmcd CD database file
#
# Track frame offsets:
#	187
#	44980
#	70025
#	98255
#	128827
#	152047
#	179475
#	202037
#	229095
#	254335
#	283057
#	308125
#
# Disc length: 4418 seconds
#
# Revision: 0
# Processed by: cddbd v1.5.1PL0 Copyright (c) Steve Scherf et al.
# Submitted via: CDex 1.51
#
DISCID=ab11400c
DTITLE=Lee Ritenour - New Best One -Lee Ritenour
DYEAR=1993
DGENRE=Jazz
TTITLE0=Captain Caribe
TTITLE1=Captain Fingers
TTITLE2=Sugar Loaf Express
TTITLE3=Crystal Morning
TTITLE4=Rio Funk
TTITLE5=The Rit Variations
TTITLE6=Pedestrian
TTITLE7=Woody Creek
TTITLE8=San Juan Sunset
TTITLE9=It's A Natural Thing
TTITLE10=That's The Way Of The World
TTITLE11=A Little Bit Of This And A Little Bit Of That
EXTD=YEAR: 1993
EXTT0=
EXTT1=
EXTT2=
EXTT3=
EXTT4=
EXTT5=
EXTT6=
EXTT7=
EXTT8=
EXTT9=
EXTT10=
EXTT11=
PLAYORDER=
